<svg width="557" height="117" viewBox="0 0 557 117" fill="none" xmlns="http://www.w3.org/2000/svg">
<path fill-rule="evenodd" clip-rule="evenodd" d="M46.6848 0C72.4665 0 93.3696 20.9031 93.3696 46.6848C93.3696 62.2484 77.8061 85.5908 46.6848 116.712C15.5635 85.5908 0 62.2484 0 46.6848C0 20.9031 20.9031 0 46.6848 0ZM46.6848 27.4273C35.9415 27.4273 27.4273 35.9415 27.4273 46.6848C27.4273 57.4282 35.9415 65.9423 46.6848 65.9423C57.4282 65.9423 65.9423 57.4282 65.9423 46.6848C65.9423 35.9415 57.4282 27.4273 46.6848 27.4273Z" fill="url(#paint0_linear_1701_3674)"/>
<path d="M535.097 87.3534C530.28 87.3534 526.134 86.3778 522.658 84.4266C519.203 82.455 516.54 79.6705 514.67 76.0729C512.8 72.455 511.865 68.1766 511.865 63.2375C511.865 58.4205 512.8 54.1928 514.67 50.5546C516.54 46.9164 519.172 44.0811 522.567 42.0485C525.981 40.016 529.985 38.9998 534.579 38.9998C537.668 38.9998 540.544 39.4977 543.207 40.4937C545.89 41.4693 548.227 42.9428 550.219 44.9144C552.231 46.8859 553.796 49.3656 554.914 52.3534C556.032 55.3209 556.591 58.7965 556.591 62.7802V66.3473H517.048V58.2985H544.365C544.365 56.4286 543.959 54.7721 543.146 53.329C542.333 51.8859 541.205 50.7579 539.762 49.9449C538.339 49.1115 536.682 48.6949 534.792 48.6949C532.821 48.6949 531.073 49.1522 529.548 50.0668C528.044 50.9611 526.865 52.1705 526.012 53.6949C525.158 55.1989 524.721 56.8758 524.701 58.7254V66.3778C524.701 68.6949 525.128 70.6969 525.981 72.3839C526.855 74.0709 528.085 75.3717 529.67 76.2863C531.256 77.2009 533.136 77.6583 535.31 77.6583C536.754 77.6583 538.075 77.455 539.274 77.0485C540.473 76.642 541.499 76.0322 542.353 75.2192C543.207 74.4062 543.857 73.4103 544.304 72.2314L556.317 73.0241C555.707 75.9103 554.457 78.4306 552.567 80.5851C550.697 82.7192 548.278 84.3859 545.31 85.5851C542.363 86.764 538.959 87.3534 535.097 87.3534Z" fill="#2D3748"/>
<path d="M435.439 24H451.719L468.915 65.9512H469.646L486.841 24H503.122V86.439H490.317V45.7988H489.799L473.64 86.1341H464.921L448.762 45.6463H448.244V86.439H435.439V24Z" fill="#2D3748"/>
<path d="M392.909 104C391.263 104 389.718 103.868 388.275 103.604C386.852 103.36 385.673 103.045 384.738 102.659L387.665 92.9635C389.189 93.431 390.561 93.685 391.781 93.7257C393.021 93.7663 394.088 93.4818 394.982 92.872C395.897 92.2623 396.639 91.2257 397.208 89.7623L397.97 87.7806L381.171 39.6099H394.83L404.525 74.0001H405.013L414.799 39.6099H428.549L410.348 91.5001C409.474 94.0204 408.285 96.2155 406.781 98.0854C405.297 99.9757 403.417 101.429 401.141 102.445C398.864 103.482 396.12 104 392.909 104Z" fill="#2D3748"/>
<path d="M328.374 86.439V24H353.374C357.967 24 361.798 24.6809 364.868 26.0427C367.937 27.4045 370.244 29.2947 371.788 31.7134C373.333 34.1118 374.105 36.876 374.105 40.0061C374.105 42.4451 373.618 44.5894 372.642 46.439C371.666 48.2683 370.325 49.7723 368.618 50.9512C366.931 52.1097 365 52.9329 362.825 53.4207V54.0305C365.203 54.1321 367.429 54.8028 369.502 56.0427C371.595 57.2825 373.292 59.0203 374.593 61.2561C375.894 63.4715 376.544 66.1138 376.544 69.1829C376.544 72.4959 375.721 75.4532 374.075 78.0548C372.449 80.6361 370.04 82.6788 366.849 84.1829C363.658 85.687 359.725 86.439 355.05 86.439H328.374ZM341.575 75.6463H352.337C356.016 75.6463 358.699 74.9451 360.386 73.5427C362.073 72.1199 362.916 70.2296 362.916 67.8719C362.916 66.1443 362.5 64.6199 361.666 63.2988C360.833 61.9776 359.644 60.941 358.099 60.189C356.575 59.437 354.756 59.061 352.642 59.061H341.575V75.6463ZM341.575 50.128H351.361C353.17 50.128 354.776 49.813 356.179 49.1829C357.601 48.5325 358.719 47.6179 359.532 46.439C360.365 45.2602 360.782 43.8476 360.782 42.2012C360.782 39.9451 359.979 38.126 358.374 36.7439C356.788 35.3618 354.532 34.6707 351.605 34.6707H341.575V50.128Z" fill="#2D3748"/>
<path d="M293 86.4389V39.6097H305.592V47.7804H306.08C306.933 44.8739 308.366 42.6788 310.378 41.1951C312.391 39.691 314.708 38.939 317.33 38.939C317.98 38.939 318.681 38.9796 319.433 39.0609C320.185 39.1422 320.846 39.254 321.415 39.3963V50.9207C320.805 50.7377 319.962 50.5751 318.885 50.4329C317.807 50.2906 316.821 50.2194 315.927 50.2194C314.017 50.2194 312.309 50.6361 310.805 51.4694C309.321 52.2825 308.143 53.4207 307.269 54.8841C306.415 56.3475 305.988 58.0345 305.988 59.9451V86.4389H293Z" fill="#2D3748"/>
<path d="M256.552 87.3229C253.565 87.3229 250.902 86.8046 248.565 85.768C246.227 84.7111 244.378 83.1562 243.016 81.1034C241.674 79.0302 241.004 76.4489 241.004 73.3595C241.004 70.7579 241.481 68.5729 242.437 66.8046C243.392 65.0363 244.693 63.6136 246.339 62.5363C247.985 61.4591 249.855 60.6461 251.949 60.0973C254.063 59.5485 256.278 59.1623 258.595 58.9388C261.319 58.6542 263.514 58.39 265.18 58.1461C266.847 57.8819 268.056 57.4957 268.809 56.9875C269.561 56.4794 269.937 55.7274 269.937 54.7315V54.5485C269.937 52.6176 269.327 51.1237 268.107 50.0668C266.908 49.0099 265.201 48.4815 262.985 48.4815C260.648 48.4815 258.788 48.9997 257.406 50.0363C256.024 51.0526 255.109 52.3331 254.662 53.8778L242.65 52.9022C243.26 50.0567 244.459 47.5973 246.248 45.5241C248.036 43.4306 250.343 41.825 253.168 40.7071C256.014 39.5689 259.306 38.9998 263.046 38.9998C265.648 38.9998 268.138 39.3046 270.516 39.9144C272.914 40.5241 275.038 41.4693 276.888 42.7498C278.758 44.0302 280.231 45.6766 281.309 47.6888C282.386 49.6806 282.924 52.0688 282.924 54.8534V86.4388H270.607V79.9449H270.241C269.489 81.4083 268.483 82.6989 267.223 83.8168C265.963 84.9144 264.449 85.7782 262.68 86.4083C260.912 87.018 258.869 87.3229 256.552 87.3229ZM260.272 78.3595C262.183 78.3595 263.869 77.9835 265.333 77.2314C266.796 76.4591 267.945 75.4225 268.778 74.1217C269.611 72.8209 270.028 71.3473 270.028 69.701V64.7314C269.622 64.9957 269.063 65.2396 268.351 65.4632C267.66 65.6664 266.878 65.8595 266.004 66.0424C265.13 66.205 264.256 66.3575 263.382 66.4997C262.508 66.6217 261.715 66.7335 261.004 66.8351C259.479 67.0587 258.148 67.4144 257.01 67.9022C255.872 68.39 254.987 69.0505 254.357 69.8839C253.727 70.6969 253.412 71.7132 253.412 72.9327C253.412 74.701 254.052 76.0526 255.333 76.9875C256.634 77.9022 258.28 78.3595 260.272 78.3595Z" fill="#2D3748"/>
<path d="M213.229 87.3534C208.412 87.3534 204.266 86.3778 200.79 84.4266C197.335 82.455 194.672 79.6705 192.802 76.0729C190.932 72.455 189.997 68.1766 189.997 63.2375C189.997 58.4205 190.932 54.1928 192.802 50.5546C194.672 46.9164 197.304 44.0811 200.699 42.0485C204.113 40.016 208.117 38.9998 212.711 38.9998C215.8 38.9998 218.676 39.4977 221.339 40.4937C224.022 41.4693 226.359 42.9428 228.351 44.9144C230.363 46.8859 231.928 49.3656 233.046 52.3534C234.164 55.3209 234.723 58.7965 234.723 62.7802V66.3473H195.18V58.2985H222.497C222.497 56.4286 222.091 54.7721 221.278 53.329C220.465 51.8859 219.337 50.7579 217.894 49.9449C216.471 49.1115 214.814 48.6949 212.924 48.6949C210.953 48.6949 209.205 49.1522 207.68 50.0668C206.176 50.9611 204.997 52.1705 204.144 53.6949C203.29 55.1989 202.853 56.8758 202.833 58.7254V66.3778C202.833 68.6949 203.26 70.6969 204.113 72.3839C204.987 74.0709 206.217 75.3717 207.802 76.2863C209.388 77.2009 211.268 77.6583 213.443 77.6583C214.886 77.6583 216.207 77.455 217.406 77.0485C218.605 76.642 219.632 76.0322 220.485 75.2192C221.339 74.4062 221.989 73.4103 222.436 72.2314L234.449 73.0241C233.839 75.9103 232.589 78.4306 230.699 80.5851C228.829 82.7192 226.41 84.3859 223.443 85.5851C220.495 86.764 217.091 87.3534 213.229 87.3534Z" fill="#2D3748"/>
<path d="M181.226 24V86.439H169.823L142.659 47.1402H142.201V86.439H129V24H140.585L167.537 63.2683H168.085V24H181.226Z" fill="#2D3748"/>
<defs>
<linearGradient id="paint0_linear_1701_3674" x1="46.6848" y1="-0.29178" x2="46.6848" y2="116.42" gradientUnits="userSpaceOnUse">
<stop stop-color="#FF795C"/>
<stop offset="1" stop-color="#FA363D"/>
</linearGradient>
</defs>
</svg>
