<svg width="288" height="298" viewBox="0 0 288 298" fill="none" xmlns="http://www.w3.org/2000/svg">
<path fill-rule="evenodd" clip-rule="evenodd" d="M142.375 0C191.384 0 231.119 39.7353 231.119 88.7445C231.119 118.33 201.534 162.702 142.375 221.861C83.2156 162.702 53.6304 118.33 53.6304 88.7445C53.6304 39.7353 93.3657 0 142.375 0ZM142.375 52.1374C121.953 52.1374 105.768 68.3221 105.768 88.7445C105.768 109.167 121.953 125.352 142.375 125.352C162.797 125.352 178.982 109.167 178.982 88.7445C178.982 68.3221 162.797 52.1374 142.375 52.1374Z" fill="url(#paint0_linear_1701_3660)"/>
<path d="M272.851 286.815C269.615 286.815 266.829 286.16 264.494 284.849C262.172 283.524 260.383 281.653 259.127 279.236C257.87 276.805 257.242 273.931 257.242 270.612C257.242 267.376 257.87 264.535 259.127 262.091C260.383 259.646 262.152 257.741 264.432 256.376C266.726 255.01 269.417 254.327 272.503 254.327C274.579 254.327 276.511 254.662 278.3 255.331C280.103 255.986 281.673 256.976 283.011 258.301C284.363 259.626 285.415 261.292 286.166 263.299C286.917 265.293 287.293 267.628 287.293 270.305V272.702H260.725V267.294H279.078C279.078 266.037 278.805 264.924 278.259 263.955C277.713 262.985 276.955 262.227 275.985 261.681C275.029 261.121 273.916 260.841 272.646 260.841C271.322 260.841 270.147 261.148 269.123 261.763C268.113 262.364 267.32 263.176 266.747 264.201C266.173 265.211 265.88 266.338 265.866 267.581V272.722C265.866 274.279 266.153 275.624 266.726 276.758C267.314 277.891 268.14 278.765 269.205 279.379C270.27 279.994 271.533 280.301 272.995 280.301C273.964 280.301 274.852 280.165 275.658 279.892C276.463 279.618 277.153 279.209 277.727 278.663C278.3 278.116 278.737 277.447 279.038 276.655L287.108 277.188C286.699 279.127 285.859 280.82 284.589 282.268C283.332 283.702 281.707 284.822 279.713 285.627C277.733 286.419 275.446 286.815 272.851 286.815Z" fill="#2D3748"/>
<path d="M205.892 244.249H216.831L228.384 272.435H228.876L240.429 244.249H251.368V286.201H242.764V258.895H242.416L231.559 285.996H225.701L214.844 258.793H214.496V286.201H205.892V244.249Z" fill="#2D3748"/>
<path d="M177.317 298C176.211 298 175.173 297.911 174.203 297.734C173.247 297.57 172.455 297.358 171.827 297.099L173.794 290.585C174.818 290.899 175.74 291.069 176.559 291.097C177.392 291.124 178.109 290.933 178.71 290.523C179.324 290.114 179.823 289.417 180.205 288.434L180.717 287.102L169.43 254.737H178.607L185.121 277.843H185.449L192.025 254.737H201.263L189.034 289.601C188.447 291.295 187.648 292.77 186.637 294.026C185.64 295.296 184.377 296.272 182.848 296.955C181.318 297.652 179.475 298 177.317 298Z" fill="#2D3748"/>
<path d="M133.957 286.201V244.249H150.754C153.84 244.249 156.414 244.707 158.476 245.621C160.538 246.536 162.088 247.806 163.126 249.432C164.164 251.043 164.683 252.9 164.683 255.003C164.683 256.642 164.355 258.083 163.7 259.325C163.044 260.555 162.143 261.565 160.996 262.357C159.862 263.136 158.565 263.689 157.104 264.016V264.426C158.702 264.494 160.197 264.945 161.59 265.778C162.997 266.611 164.137 267.779 165.011 269.281C165.885 270.769 166.322 272.545 166.322 274.607C166.322 276.833 165.769 278.82 164.663 280.568C163.57 282.302 161.952 283.675 159.808 284.685C157.664 285.696 155.021 286.201 151.88 286.201H133.957ZM142.826 278.949H150.057C152.529 278.949 154.332 278.478 155.465 277.536C156.599 276.58 157.165 275.31 157.165 273.726C157.165 272.565 156.885 271.541 156.325 270.653C155.766 269.766 154.967 269.069 153.929 268.564C152.905 268.059 151.682 267.806 150.262 267.806H142.826V278.949ZM142.826 261.804H149.402C150.617 261.804 151.696 261.592 152.638 261.169C153.594 260.732 154.345 260.118 154.892 259.325C155.451 258.533 155.731 257.584 155.731 256.478C155.731 254.962 155.192 253.74 154.113 252.811C153.048 251.883 151.532 251.419 149.566 251.419H142.826V261.804Z" fill="#2D3748"/>
<path d="M110.19 286.201V254.737H118.65V260.227H118.977C119.551 258.274 120.514 256.799 121.866 255.802C123.218 254.792 124.775 254.286 126.536 254.286C126.973 254.286 127.444 254.314 127.95 254.368C128.455 254.423 128.899 254.498 129.281 254.594V262.337C128.871 262.214 128.305 262.105 127.581 262.009C126.857 261.913 126.195 261.866 125.594 261.866C124.31 261.866 123.163 262.146 122.153 262.705C121.156 263.252 120.364 264.016 119.776 265C119.203 265.983 118.916 267.116 118.916 268.4V286.201H110.19Z" fill="#2D3748"/>
<path d="M85.7008 286.795C83.6933 286.795 81.9044 286.447 80.3339 285.75C78.7634 285.04 77.5207 283.995 76.6058 282.616C75.7044 281.223 75.2538 279.489 75.2538 277.413C75.2538 275.665 75.5747 274.197 76.2165 273.009C76.8584 271.821 77.7324 270.865 78.8385 270.141C79.9447 269.417 81.2011 268.871 82.6077 268.502C84.0279 268.134 85.5164 267.874 87.0733 267.724C88.9032 267.533 90.3781 267.355 91.4979 267.191C92.6177 267.014 93.4302 266.754 93.9355 266.413C94.4408 266.072 94.6934 265.566 94.6934 264.897V264.774C94.6934 263.477 94.2837 262.473 93.4644 261.763C92.6586 261.053 91.5115 260.698 90.023 260.698C88.4525 260.698 87.203 261.046 86.2744 261.742C85.3457 262.425 84.7312 263.286 84.4308 264.324L76.3599 263.668C76.7696 261.756 77.5753 260.104 78.7771 258.711C79.9788 257.304 81.5288 256.225 83.427 255.474C85.3389 254.71 87.5512 254.327 90.064 254.327C91.812 254.327 93.4848 254.532 95.0826 254.942C96.6941 255.351 98.1211 255.986 99.3639 256.847C100.62 257.707 101.61 258.813 102.334 260.165C103.058 261.503 103.42 263.108 103.42 264.979V286.201H95.1441V281.838H94.8983C94.393 282.821 93.717 283.688 92.8703 284.439C92.0236 285.177 91.0062 285.757 89.8181 286.18C88.6301 286.59 87.2576 286.795 85.7008 286.795ZM88.1999 280.772C89.4836 280.772 90.617 280.52 91.6003 280.015C92.5835 279.496 93.3551 278.799 93.915 277.925C94.4749 277.051 94.7549 276.061 94.7549 274.955V271.616C94.4818 271.793 94.1062 271.957 93.6282 272.108C93.1639 272.244 92.6382 272.374 92.0509 272.497C91.4637 272.606 90.8765 272.708 90.2893 272.804C89.7021 272.886 89.1695 272.961 88.6915 273.029C87.6673 273.18 86.7728 273.419 86.0081 273.746C85.2433 274.074 84.6493 274.518 84.2259 275.078C83.8026 275.624 83.5909 276.307 83.5909 277.126C83.5909 278.314 84.0211 279.222 84.8814 279.851C85.7554 280.465 86.8616 280.772 88.1999 280.772Z" fill="#2D3748"/>
<path d="M56.5925 286.815C53.3559 286.815 50.5701 286.16 48.2349 284.849C45.9133 283.524 44.1243 281.653 42.868 279.236C41.6116 276.805 40.9834 273.931 40.9834 270.612C40.9834 267.376 41.6116 264.535 42.868 262.091C44.1243 259.646 45.8928 257.741 48.1734 256.376C50.4676 255.01 53.1579 254.327 56.2442 254.327C58.32 254.327 60.2523 254.662 62.0413 255.331C63.8439 255.986 65.4144 256.976 66.7527 258.301C68.1047 259.626 69.1562 261.292 69.9073 263.299C70.6584 265.293 71.0339 267.628 71.0339 270.305V272.702H44.4657V267.294H62.8197C62.8197 266.037 62.5466 264.924 62.0003 263.955C61.4541 262.985 60.6962 262.227 59.7266 261.681C58.7706 261.121 57.6577 260.841 56.3876 260.841C55.063 260.841 53.8885 261.148 52.8643 261.763C51.8538 262.364 51.0617 263.176 50.4881 264.201C49.9146 265.211 49.621 266.338 49.6073 267.581V272.722C49.6073 274.279 49.8941 275.624 50.4676 276.758C51.0549 277.891 51.8811 278.765 52.9463 279.379C54.0114 279.994 55.2746 280.301 56.7359 280.301C57.7054 280.301 58.5931 280.165 59.3988 279.892C60.2045 279.618 60.8942 279.209 61.4677 278.663C62.0413 278.116 62.4783 277.447 62.7787 276.655L70.8496 277.188C70.4399 279.127 69.6 280.82 68.33 282.268C67.0736 283.702 65.4485 284.822 63.4547 285.627C61.4746 286.419 59.1871 286.815 56.5925 286.815Z" fill="#2D3748"/>
<path d="M35.0897 244.249V286.201H27.4285L9.17698 259.797H8.86972V286.201H0V244.249H7.78405L25.8922 270.633H26.2609V244.249H35.0897Z" fill="#2D3748"/>
<defs>
<linearGradient id="paint0_linear_1701_3660" x1="142.375" y1="-0.554653" x2="142.375" y2="221.307" gradientUnits="userSpaceOnUse">
<stop stop-color="#FF795C"/>
<stop offset="1" stop-color="#FA363D"/>
</linearGradient>
</defs>
</svg>
